<svg id="Layer_2" data-name="Layer 2" xmlns="http://www.w3.org/2000/svg" xmlns:xlink="http://www.w3.org/1999/xlink" viewBox="0 0 742.01 229.45"><defs><style>.cls-1{fill:#ddf8f3;}.cls-2{fill:url(#linear-gradient);}</style><linearGradient id="linear-gradient" x1="385" y1="236.55" x2="1127.01" y2="236.55" gradientUnits="userSpaceOnUse"><stop offset="0" stop-color="#4eaaf7"/><stop offset="1" stop-color="#7affa2"/></linearGradient></defs><title>11</title><path class="cls-1" d="M531,345s279,45,596-29V157L815,179,573,280Z" transform="translate(-385 -129.1)"/><path class="cls-2" d="M385,167.5s722-60,742-30c0,11,0,22.07-.11,33.11-14.45-1.39-29-.27-43.49.85-99,7.68-201.1,16.21-289.25,62C742,260.5,696.52,299.89,641.56,321.77,581,345.91,509.38,349.83,445.9,336.28A365,365,0,0,1,385,317.5Z" transform="translate(-385 -129.1)"/></svg>