<svg id="Layer_2" data-name="Layer 2" xmlns="http://www.w3.org/2000/svg" xmlns:xlink="http://www.w3.org/1999/xlink" viewBox="0 0 742.01 289.41"><defs><style>.cls-1{fill:#ddf8f3;}.cls-2{fill:url(#linear-gradient);}</style><linearGradient id="linear-gradient" x1="312" y1="389.71" x2="1054.01" y2="389.71" gradientUnits="userSpaceOnUse"><stop offset="0" stop-color="#4eaaf7"/><stop offset="1" stop-color="#7affa2"/></linearGradient></defs><title>33</title><path class="cls-1" d="M458,501.24s279,52.34,596-33.73V282.57L742,308.16,500,425.64Z" transform="translate(-312 -245)"/><path class="cls-2" d="M312,296.71s722-80.8,742-40.4c0,14.86,0,29.73-.11,44.59-14.45-1.88-29-.36-43.49,1.15-99,10.34-201.1,21.82-289.25,83.43C669,422,623.52,475,568.56,504.47,508,537,436.38,542.26,372.9,524A301.11,301.11,0,0,1,312,498.72Z" transform="translate(-312 -245)"/></svg>