<svg width="32" height="32" viewBox="0 0 32 32" fill="none" xmlns="http://www.w3.org/2000/svg"><path d="M16 32c8.837 0 16-7.163 16-16S24.837 0 16 0 0 7.163 0 16s7.163 16 16 16z" fill="#25D366"/><path fill-rule="evenodd" clip-rule="evenodd" d="M16.527 24.902h-.004c-1.592 0-3.156-.4-4.546-1.158l-5.044 1.323 1.35-4.93a9.497 9.497 0 0 1-1.27-4.757c.002-5.246 4.27-9.513 9.514-9.513a9.452 9.452 0 0 1 6.73 2.79 9.456 9.456 0 0 1 2.784 6.73c-.002 5.245-4.268 9.513-9.514 9.515zm-4.316-2.88l.288.17a7.897 7.897 0 0 0 4.025 1.103h.003c4.359 0 7.906-3.548 7.908-7.908 0-2.113-.82-4.1-2.314-5.594a7.854 7.854 0 0 0-5.59-2.32c-4.362 0-7.91 3.548-7.912 7.908a7.89 7.89 0 0 0 1.21 4.208l.188.3-.8 2.917 2.994-.785zm8.784-4.586c.166.08.278.134.326.214.059.1.059.575-.139 1.13-.198.556-1.148 1.063-1.605 1.13-.41.062-.928.088-1.497-.093a13.78 13.78 0 0 1-1.355-.501c-2.229-.962-3.735-3.122-4.02-3.53l-.041-.06-.002-.002c-.126-.168-.969-1.293-.969-2.457 0-1.095.538-1.669.786-1.933l.046-.05a.873.873 0 0 1 .634-.297c.159 0 .317.001.456.008h.053c.138 0 .311-.001.482.408l.262.637c.205.498.43 1.049.47 1.128.06.12.1.258.02.417a7.979 7.979 0 0 0-.033.067 1.35 1.35 0 0 1-.204.33c-.04.046-.081.096-.122.146-.082.1-.164.199-.235.27-.119.118-.243.247-.104.485.138.238.615 1.016 1.322 1.647.76.677 1.42.964 1.755 1.109.065.028.118.051.157.07.238.12.376.1.515-.059s.594-.694.753-.932c.158-.238.317-.198.535-.119.218.08 1.386.654 1.624.773.046.024.09.045.13.064z" fill="#FDFDFD"/></svg>